@startuml database-design
class Tenants {
    + id: NanoID
    + tenant_name: String
    + business_name: String
    + email: String
    + created_at: Date
    + updated_at: Date
}

class Products {
    + id: NanoID
    + name: String
    + url: String
    + created_at: Date
    + updated_at: Date
}

class TenantsProducts {
    + tenant_id: NanoID
    + product_id: NanoID
    + created_at: Date
    + updated_at: Date
}

class Tiers {
    + id: NanoID
    + tenant_id: NanoID
    + product_id: NanoID
    + name: String
    + price: Double
    + created_at: Date
    + updated_at: Date
}

class Users {
    + id: NanoID
    + login_id: String
    + first_name: String
    + last_name: String
    + display_name: String
    + email: String
    + created_at: Date
    + updated_at: Date
}

class TenantsUsers {
    + user_id: NanoID
    + tenant_id: NanoID
    + created_at: Date
    + updated_at: Date
}

class Analytics {
    + id: NanoID
    + tenant_id: NanoID
    + product_id: NanoID
    + name: String
    + value: JSON
    + created_at: Date
    + updated_at: Date
}

class Finances {
    + id: NanoID
    + tenant_id: NanoID
    + product_id: NanoID
    + tier_id: NanoID
    + yearly_charge: Boolean
    + billing_date: Date
    + created_at: Date
    + updated_at: Date
}

class BillingHistory {
    + id: NanoID
    + tenant_id: NanoID
    + product_id: NanoID
    + tier_id: NanoID
    + month: Date
    + user_count: Number
    + amount: Double
    + billing_date: Date
    + created_at: Date
    + updated_at: Date
}

Tenants "1" -- "*" TenantsProducts
Products "1" -- "*" TenantsProducts
Products "1" -- "*" Tiers
Tenants "1" -- "*" TenantsUsers
Users "1" -- "*" TenantsUsers
Tenants "1" -- "*" Analytics
Tenants "1" -- "1" Finances
Tenants "1" -- "*" BillingHistory
Products "1" -- "*" BillingHistory
Tiers "1" -- "*" BillingHistory
@enduml